<?xml version="1.0" encoding="iso-8859-1"?>
<!-- Generator: Adobe Illustrator 16.0.0, SVG Export Plug-In . SVG Version: 6.00 Build 0)  -->
<!DOCTYPE svg PUBLIC "-//W3C//DTD SVG 1.1//EN" "http://www.w3.org/Graphics/SVG/1.1/DTD/svg11.dtd">
<svg version="1.1" id="Capa_1" xmlns="http://www.w3.org/2000/svg" xmlns:xlink="http://www.w3.org/1999/xlink" x="0px" y="0px"
	 width="441.6px" height="441.6px" viewBox="0 0 441.6 441.6" style="enable-background:new 0 0 441.6 441.6;" xml:space="preserve"
	>
<g>
	<g>
		<path d="M406.975,205.046v5.087c0,46.294-37.663,83.958-83.958,83.958H201.071v10.472c0,22.139,17.946,40.084,40.083,40.084
			h101.938l46.158,45.411c1.645,1.617,3.828,2.477,6.047,2.477c1.123,0,2.254-0.221,3.33-0.67c3.204-1.344,5.289-4.479,5.289-7.951
			v-39.345c21.019-1.242,37.683-18.675,37.683-40.006V244.75C441.6,224.467,426.528,207.711,406.975,205.046z"/>
		<path d="M383.787,208.459v-95.437c0-35.323-28.636-63.958-63.958-63.958H63.958C28.635,49.064,0,77.699,0,113.022v95.437
			c0,34.037,26.589,61.851,60.126,63.833v62.777c0,5.542,3.327,10.544,8.438,12.686c1.718,0.721,3.522,1.069,5.313,1.069
			c3.542,0,7.025-1.368,9.649-3.95l73.65-72.457h162.651C355.152,272.418,383.787,243.783,383.787,208.459z"/>
	</g>
</g>
<g>
</g>
<g>
</g>
<g>
</g>
<g>
</g>
<g>
</g>
<g>
</g>
<g>
</g>
<g>
</g>
<g>
</g>
<g>
</g>
<g>
</g>
<g>
</g>
<g>
</g>
<g>
</g>
<g>
</g>
</svg>
