<?xml version="1.0" encoding="iso-8859-1"?>
<!-- Generator: Adobe Illustrator 16.0.0, SVG Export Plug-In . SVG Version: 6.00 Build 0)  -->
<!DOCTYPE svg PUBLIC "-//W3C//DTD SVG 1.1//EN" "http://www.w3.org/Graphics/SVG/1.1/DTD/svg11.dtd">
<svg version="1.1" id="Capa_1" xmlns="http://www.w3.org/2000/svg" xmlns:xlink="http://www.w3.org/1999/xlink" x="0px" y="0px"
	 width="45.94px" height="45.941px" viewBox="0 0 45.94 45.941" style="enable-background:new 0 0 45.94 45.941;"
	 xml:space="preserve">
<g>
	<g>
		<path d="M11.284,2.656H5.146C2.304,2.656,0,4.961,0,7.802v30.354C0,41,2.305,43.302,5.146,43.302h6.138
			c2.843,0,5.147-2.304,5.147-5.146V7.803C16.431,4.961,14.126,2.656,11.284,2.656z M4.324,11.733c0-1.729,1.401-3.131,3.13-3.131
			h1.469c1.729,0,3.131,1.401,3.131,3.131v11.144c0,1.729-1.402,3.131-3.131,3.131H7.454c-1.729,0-3.13-1.4-3.13-3.131V11.733z
			 M8.208,37.326c-2.137,0-3.869-1.732-3.869-3.87c0-2.137,1.732-3.869,3.869-3.869c2.138,0,3.87,1.732,3.87,3.869
			C12.078,35.593,10.345,37.326,8.208,37.326z"/>
		<path d="M45.57,34L34.277,5.817c-1.057-2.639-4.053-3.921-6.691-2.863l-5.721,2.292c-2.639,1.057-3.921,4.053-2.863,6.691
			l11.293,28.185c1.057,2.639,4.053,3.921,6.691,2.863l5.721-2.292C45.346,39.635,46.626,36.64,45.57,34z M28.668,24.352
			l-4.152-10.363c-0.643-1.605,0.137-3.428,1.741-4.07l1.377-0.552c1.604-0.643,3.427,0.137,4.07,1.741l4.151,10.362
			c0.644,1.605-0.137,3.429-1.742,4.07l-1.375,0.552C31.133,26.736,29.311,25.956,28.668,24.352z M37.624,36.296
			c-1.983,0.795-4.237-0.169-5.032-2.151c-0.795-1.984,0.17-4.237,2.153-5.031c1.983-0.795,4.235,0.169,5.03,2.151
			C40.57,33.25,39.607,35.501,37.624,36.296z"/>
	</g>
</g>
<g>
</g>
<g>
</g>
<g>
</g>
<g>
</g>
<g>
</g>
<g>
</g>
<g>
</g>
<g>
</g>
<g>
</g>
<g>
</g>
<g>
</g>
<g>
</g>
<g>
</g>
<g>
</g>
<g>
</g>
</svg>
